<!--?xml version="1.0" encoding="utf-8"?-->
<!-- Generator: Adobe Illustrator 18.1.1, SVG Export Plug-In . SVG Version: 6.00 Build 0)  -->

<svg version="1.1" id="_x32_" xmlns="http://www.w3.org/2000/svg" xmlns:xlink="http://www.w3.org/1999/xlink" x="0px" y="0px" viewBox="0 0 512 512" style="width: 64px; height: 64px; opacity: 1;" xml:space="preserve">
<style type="text/css">
	.st0{fill:#4B4B4B;}
</style>
<g>
	<polygon class="st0" points="325.071,234.053 398.427,160.698 432.147,194.434 432.147,79.851 317.579,79.851 351.308,113.587 
		277.964,186.927 	" style="fill: rgba(255, 255, 255, 0.85);"></polygon>
	<polygon class="st0" points="160.689,398.428 234.036,325.073 186.921,277.962 113.574,351.317 79.849,317.581 79.849,432.164 
		194.421,432.164 	" style="fill: rgba(255, 255, 255, 0.85);"></polygon>
	<polygon class="st0" points="317.579,432.164 432.147,432.164 432.147,317.581 398.423,351.317 325.071,277.962 277.964,325.073 
		351.308,398.428 	" style="fill: rgba(255, 255, 255, 0.85);"></polygon>
	<polygon class="st0" points="186.921,234.053 234.036,186.927 160.696,113.587 194.417,79.851 79.849,79.851 79.849,194.418 
		113.574,160.698 	" style="fill: rgba(255, 255, 255, 0.85);"></polygon>
	<path class="st0" d="M0.006,0v512h511.988v-12.839V0H0.006z M486.321,486.322H25.679V25.677h460.642V486.322z" style="fill: rgba(255, 255, 255, 0.85);"></path>
</g>
</svg>
